<svg xmlns="http://www.w3.org/2000/svg" viewBox="0 0 64 64">
  <defs>
    <linearGradient id="bg" x1="0" y1="0" x2="0" y2="1">
      <stop offset="0" stop-color="#1a1d23"/>
      <stop offset="1" stop-color="#0d0f13"/>
    </linearGradient>
  </defs>
  <rect width="64" height="64" rx="10" fill="url(#bg)"/>
  <path d="M10 18 L54 18 L32 56 Z" fill="none" stroke="#3a3f48" stroke-width="2.5" stroke-linejoin="round"/>
  <rect x="18" y="14" width="28" height="28" rx="8" fill="#0a0d12" stroke="#d946ef" stroke-width="2"/>
  <line x1="24" y1="14" x2="24" y2="8" stroke="#d946ef" stroke-width="1.5"/>
  <circle cx="24" cy="8" r="1.5" fill="#d946ef"/>
  <line x1="40" y1="14" x2="40" y2="8" stroke="#d946ef" stroke-width="1.5"/>
  <circle cx="40" cy="8" r="1.5" fill="#d946ef"/>
  <!-- "3" 字形：用 path 绘制 -->
  <path d="M 26 21 Q 32 19 36 22 Q 39 24.5 36 27.5 Q 33 30 30 30 M 30 30 Q 34 30 37 32.5 Q 40 35.5 37 37.8 Q 33 40 26 38"
        fill="none" stroke="#22d3ee" stroke-width="3" stroke-linecap="round" stroke-linejoin="round"/>
</svg>
